HIERARCHY
ROOT Hips
{
	OFFSET 0.00000 0.00000 0.00000
	CHANNELS 6 Xposition Yposition Zposition Zrotation Yrotation Xrotation 
	JOINT LHipJoint
	{
		OFFSET 0 0 0
		CHANNELS 3 Zrotation Yrotation Xrotation
		JOINT LeftHip
		{
			OFFSET 1.38691 -1.89057 0.78360
			CHANNELS 3 Zrotation Yrotation Xrotation
			JOINT LeftKnee
			{
				OFFSET 2.59731 -7.13606 0.00000
				CHANNELS 3 Zrotation Yrotation Xrotation
				JOINT LeftAnkle
				{
					OFFSET 2.70078 -7.42033 0.00000
					CHANNELS 3 Zrotation Yrotation Xrotation
					JOINT LeftToe
					{
						OFFSET 0.16751 -0.46024 2.68862
						CHANNELS 3 Zrotation Yrotation Xrotation
						End Site
						{
							OFFSET 0.00000 -0.00000 1.37057
						}
					}
				}
			}
		}
	}
	JOINT RHipJoint
	{
		OFFSET 0 0 0
		CHANNELS 3 Zrotation Yrotation Xrotation
		JOINT RightHip
		{
			OFFSET -1.38190 -1.89056 0.78359
			CHANNELS 3 Zrotation Yrotation Xrotation
			JOINT RightKnee
			{
				OFFSET -2.57785 -7.08258 0.00000
				CHANNELS 3 Zrotation Yrotation Xrotation
				JOINT RightAnkle
				{
					OFFSET -2.77908 -7.63547 0.00000
					CHANNELS 3 Zrotation Yrotation Xrotation
					JOINT RightToe
					{
						OFFSET -0.17921 -0.49237 2.62360
						CHANNELS 3 Zrotation Yrotation Xrotation
						End Site
						{
							OFFSET -0.00000 -0.00000 1.34085
						}
					}
				}
			}
		}
	}
	JOINT lowerback
	{
		OFFSET 0 0 0
		CHANNELS 3 Zrotation Yrotation Xrotation
		JOINT Chest
		{
			OFFSET -0.10749 2.04110 -0.22549
			CHANNELS 3 Zrotation Yrotation Xrotation
			JOINT Chest2
			{
				OFFSET 0.01213 2.05840 0.00691
				CHANNELS 3 Zrotation Yrotation Xrotation
				JOINT lowerneck
				{
					OFFSET 0 0 0
					CHANNELS 3 Zrotation Yrotation Xrotation
					JOINT Neck
					{
						OFFSET 0.06585 1.81215 0.35449
						CHANNELS 3 Zrotation Yrotation Xrotation
						JOINT Head
						{
							OFFSET -0.04315 1.87555 -0.27307
							CHANNELS 3 Zrotation Yrotation Xrotation
							End Site
							{
								OFFSET -0.01775 1.89740 -0.13294
							}
						}
					}
				}
				JOINT LeftCollar
				{
					OFFSET 0 0 0
					CHANNELS 3 Zrotation Yrotation Xrotation
					JOINT LeftShoulder
					{
						OFFSET 2.98012 1.63606 0.28888
CHANNELS 3 Zrotation Xrotation Yrotation
						JOINT LeftElbow
						{
OFFSET 0 -5.598640 -0.000000
CHANNELS 3 Zrotation Xrotation Yrotation
							JOINT LeftWrist
							{
OFFSET 0 -3.595420 -0.000000
CHANNELS 3 Zrotation Xrotation Yrotation
								JOINT lhand
								{
									OFFSET 0 0 0
CHANNELS 3 Zrotation Xrotation Yrotation
									JOINT LFingers
									{
OFFSET 0 -0.572010 -0.000000
CHANNELS 3 Zrotation Xrotation Yrotation
										End Site
										{
OFFSET 0 -0.461170 -0.000000
										}
									}
								}
								JOINT LThumb
								{
OFFSET 0 0.000000 0.000000
CHANNELS 3 Zrotation Xrotation Yrotation
									End Site
									{
OFFSET 0 -0.468210 0.468210
									}
								}
							}
						}
					}
				}
				JOINT RightCollar
				{
					OFFSET 0 0 0
					CHANNELS 3 Zrotation Yrotation Xrotation
					JOINT RightShoulder
					{
						OFFSET -3.08694 1.53706 0.36335
CHANNELS 3 Zrotation Xrotation Yrotation
						JOINT RightElbow
						{
OFFSET 0 -5.809400 -0.000000
CHANNELS 3 Zrotation Xrotation Yrotation
							JOINT RightWrist
							{
OFFSET 0 -3.669530 -0.000000
CHANNELS 3 Zrotation Xrotation Yrotation
								JOINT rhand
								{
									OFFSET 0 0 0
CHANNELS 3 Zrotation Xrotation Yrotation
									JOINT RFingers
									{
OFFSET 0 -0.578430 -0.000000
CHANNELS 3 Zrotation Xrotation Yrotation
										End Site
										{
OFFSET 0 -0.466350 -0.000000
										}
									}
								}
								JOINT RThumb
								{
OFFSET 0 0.000000 0.000000
CHANNELS 3 Zrotation Xrotation Yrotation
									End Site
									{
OFFSET 0 -0.473470 0.473470
									}
								}
							}
						}
					}
				}
			}
		}
	}
}
MOTION
Frames: 6
Frame Time: 0.008333333333333333
-2.589900 19.420600 -30.925700 -7.466200 51.933900 -5.916400 0.000000 0.000000 0.000000 -14.336000 -0.038200 1.675900 2.480500 9.802300 28.338900 5.715600 -19.239500 -44.045700 0.726300 5.445300 15.183100 0.000000 0.000000 0.000000 23.215200 3.445300 -21.335300 -4.994500 -13.377600 40.798700 -2.445000 7.187200 -28.228300 -0.056200 1.529400 -4.206600 -6.172500 -1.353500 9.224700 -1.000800 -2.533700 -0.687200 2.769200 -1.067200 -5.685700 -1.759100 -5.162000 -17.257100 6.464100 -9.269900 37.165700 1.448000 -2.960600 16.810500 0.000000 0.000000 0.000000 4.419100 1.714700 -22.398300 13.530700 -22.059800 2.649300 29.857800 -3.604200 -26.854000 0.000000 0.000000 0.000000 -7.125000 0.000000 0.000000 -0.268900 60.256500 0.100100 0.000000 0.000000 0.000000 -3.554400 3.773600 47.355600 -33.629800 -43.808600 -13.856200 -35.156900 -13.335100 6.207600 0.000000 0.000000 0.000000 7.125000 0.000000 -0.000000 -7.183300 37.470800 -1.339500
-2.572844 19.444605 -30.695912 -7.412109 51.754650 -5.407392 0.000000 0.000000 0.000000 -14.350056 -0.004719 1.120697 2.535775 9.902428 28.661551 5.945230 -17.410198 -44.844983 0.591744 4.916867 13.673290 0.000000 0.000000 0.000000 23.240864 3.557035 -21.597306 -4.911903 -13.283711 40.440278 -2.383644 7.162247 -27.857718 -0.053436 1.491813 -4.103077 -6.100010 -1.476685 8.724536 -1.001984 -2.662018 -0.880585 2.728928 -1.132741 -5.598207 -1.750493 -5.089905 -17.139679 6.366657 -9.127447 37.217738 1.434813 -2.917485 16.789890 0.000000 0.000000 0.000000 4.247588 1.944251 -22.164011 13.516486 -22.039269 2.643930 28.990528 -4.258582 -25.923003 0.000000 0.000000 0.000000 -7.125000 0.000000 0.000000 -0.956922 59.039492 0.322939 0.000000 0.000000 0.000000 -3.375150 4.236098 46.867518 -33.267825 -43.534434 -13.606434 -34.227483 -14.439267 5.857154 0.000000 0.000000 0.000000 7.125000 0.000000 0.000000 -6.373751 36.987377 -1.260140
-2.556077 19.468437 -30.465892 -7.374180 51.584668 -4.935401 0.000000 0.000000 0.000000 -14.348470 0.044693 0.569898 2.595975 10.010086 29.009633 6.141550 -15.722709 -45.566872 0.459389 4.330330 12.010604 0.000000 0.000000 0.000000 23.288541 3.651739 -21.830578 -4.826119 -13.184955 40.065404 -2.320377 7.107113 -27.472884 -0.049340 1.432907 -3.940871 -5.998555 -1.596163 8.241288 -1.010063 -2.783732 -1.057518 2.663514 -1.196428 -5.504979 -1.716570 -5.032582 -17.056900 6.229185 -9.003474 37.295844 1.395441 -2.882191 16.788455 0.000000 0.000000 0.000000 4.194833 2.356803 -22.533120 13.743261 -22.365796 2.730090 28.303244 -5.391292 -25.179410 0.000000 0.000000 0.000000 -7.125000 0.000000 0.000000 -1.490850 58.075117 0.473076 0.000000 0.000000 0.000000 -3.162126 4.636147 46.512037 -32.866978 -43.226610 -13.331237 -34.188390 -14.827999 6.027960 0.000000 0.000000 0.000000 7.125000 0.000000 0.000000 -6.346662 37.188569 -1.224749
-2.539563 19.490619 -30.237190 -7.308694 51.443214 -4.440141 0.000000 0.000000 0.000000 -14.367549 0.077421 0.010846 2.657667 10.118892 29.362743 6.304340 -14.129843 -46.201220 0.336393 3.705760 10.252633 0.000000 0.000000 0.000000 23.318348 3.706574 -22.053860 -4.739769 -13.084322 39.685442 -2.263499 7.126873 -27.118738 -0.046457 1.390796 -3.824837 -5.914513 -1.713077 7.744258 -1.013966 -2.901941 -1.214051 2.609448 -1.259073 -5.381591 -1.686442 -4.963984 -17.002934 6.084187 -8.856658 37.353310 1.356597 -2.839221 16.781660 0.000000 0.000000 0.000000 4.113512 2.631591 -22.609192 13.845212 -22.512855 2.768648 27.603505 -6.264617 -24.388384 0.000000 0.000000 0.000000 -7.125000 0.000000 0.000000 -2.012951 57.065042 0.589103 0.000000 0.000000 0.000000 -2.947022 4.960097 46.135823 -32.394536 -42.857901 -13.008951 -34.675174 -14.918173 6.320560 0.000000 0.000000 0.000000 7.125000 0.000000 0.000000 -6.776324 37.573566 -1.243805
-2.523185 19.511309 -30.009612 -7.213387 51.306631 -3.915392 0.000000 0.000000 0.000000 -14.411257 0.088921 -0.542279 2.719039 10.225541 29.710296 6.440307 -12.610280 -46.766604 0.230120 3.076106 8.491545 0.000000 0.000000 0.000000 23.326451 3.759825 -22.265387 -4.653886 -12.982929 39.304808 -2.216459 7.218378 -26.817744 -0.047064 1.399214 -3.847920 -5.856956 -1.816867 7.228603 -1.010730 -3.003266 -1.355230 2.573513 -1.313574 -5.231247 -1.631743 -4.891573 -16.955473 5.921966 -8.703059 37.372752 1.306041 -2.793682 16.753407 0.000000 0.000000 0.000000 3.968133 2.718912 -22.336538 13.784824 -22.425986 2.745625 26.754297 -6.911438 -23.404682 0.000000 0.000000 0.000000 -7.125000 0.000000 0.000000 -2.628903 55.823382 0.692087 0.000000 0.000000 0.000000 -2.722515 5.221559 45.651786 -31.827239 -42.407517 -12.624691 -35.161302 -14.922070 6.549710 0.000000 0.000000 0.000000 7.125000 0.000000 0.000000 -7.204093 37.883990 -1.270596
-2.506682 19.533261 -29.780139 -7.151083 51.075264 -3.439866 0.000000 0.000000 0.000000 -14.433446 0.117901 -1.027124 2.780474 10.330801 30.054820 6.566809 -11.186700 -47.327255 0.151549 2.503057 6.898506 0.000000 0.000000 0.000000 23.365538 3.959607 -22.428134 -4.567182 -12.879011 38.917485 -2.176424 7.205823 -26.565530 -0.053855 1.497367 -4.118375 -5.778070 -1.873958 6.729229 -1.009388 -3.042433 -1.500762 2.516816 -1.337342 -5.101034 -1.420354 -4.879492 -16.860241 5.659408 -8.656548 37.377489 1.163352 -2.785628 16.695683 0.000000 0.000000 0.000000 3.893117 2.986840 -22.999922 14.041854 -22.794357 2.844331 25.663397 -8.621898 -22.178277 0.000000 0.000000 0.000000 -7.125000 0.000000 0.000000 -3.418078 54.283803 0.778159 0.000000 0.000000 0.000000 -2.414394 5.476773 45.051258 -31.143323 -41.852946 -12.165589 -34.725652 -14.758613 6.832562 0.000000 0.000000 0.000000 7.125000 0.000000 0.000000 -6.841091 38.191637 -1.153570
